{
.appVersion = "3135";
.formatVersion = 3;
date = "2022-08-19 10:21:49 +0000";
familyName = "Sumeru Scribe";
featurePrefixes = (
{
automatic = 1;
code = "languagesystem DFLT dflt;
";
name = Languagesystems;
}
);
features = (
{
automatic = 1;
code = "";
tag = kern;
}
);
fontMaster = (
{
id = m01;
metricValues = (
{
pos = 1200;
},
{
pos = 1000;
},
{
},
{
pos = -200;
}
);
name = Regular;
}
);
glyphs = (
{
glyphname = A;
kernRight = LowerPartEmpty;
lastChange = "2023-06-30 08:47:31 +0000";
layers = (
{
layerId = m01;
shapes = (
{
closed = 1;
nodes = (
(183.1,843.6,o),
(34.9,729.5,o),
(51.2,699.8,cs),
(68,669.2,o),
(136.8,727.8,o),
(288.8,761.5,cs),
(394,784.8,o),
(929,761.5,o),
(1040.6,784.8,cs),
(1235.4,825.5,o),
(1328.8,956,o),
(1318.4,971.7,cs),
(1305.8,990.7,o),
(1225.3,938.9,o),
(1143.1,907.3,cs),
(1018.7,859.6,o),
(484.7,899.9,o),
(350.8,874.9,cs)
);
},
{
closed = 1;
nodes = (
(538.9,817.4,o),
(396.9,565.2,o),
(396.9,367.1,cs),
(396.9,169,o),
(515.6,27.7,o),
(756.9,27.7,cs),
(962.6,27.7,o),
(1163.8,202.6,o),
(1163.8,338.1,cs),
(1163.8,419.6,o),
(1122.8,453.4,o),
(1079.5,453.4,cs),
(1036.2,453.4,o),
(1000,433.9,o),
(1000,395.3,cs),
(1000,356.7,o),
(1016.8,319.7,o),
(1009.1,282.1,cs),
(1000,237.7,o),
(922.1,155.7,o),
(814.7,155.7,cs),
(675.1,155.7,o),
(545.8,266.6,o),
(545.8,442.9,cs),
(545.8,619.2,o),
(747.4,817.4,o),
(703.6,817.4,c)
);
},
{
closed = 1;
nodes = (
(865.6,521.6,o),
(899.2,555.2,o),
(899.2,596.6,cs),
(899.2,638,o),
(865.6,671.6,o),
(824.2,671.6,cs),
(782.8,671.6,o),
(749.2,638,o),
(749.2,596.6,cs),
(749.2,555.2,o),
(782.8,521.6,o),
(824.2,521.6,cs)
);
},
{
closed = 1;
nodes = (
(845.6,281.6,o),
(879.2,315.2,o),
(879.2,356.6,cs),
(879.2,398,o),
(845.6,431.6,o),
(804.2,431.6,cs),
(762.8,431.6,o),
(729.2,398,o),
(729.2,356.6,cs),
(729.2,315.2,o),
(762.8,281.6,o),
(804.2,281.6,cs)
);
}
);
width = 1369.2;
}
);
unicode = (65,97);
},
{
glyphname = B;
kernRight = LowerPartEmpty;
lastChange = "2023-06-30 08:47:34 +0000";
layers = (
{
layerId = m01;
shapes = (
{
closed = 1;
nodes = (
(79,815,o),
(39.5,731.7,o),
(52.3,712.7,cs),
(65.8,692.6,o),
(124.9,760,o),
(241.2,776.8,cs),
(458,808.2,o),
(793.1,745.8,o),
(1015.3,833.8,cs),
(1126.5,877.9,o),
(1200.2,988.1,o),
(1192.7,996.6,cs),
(1184.6,1005.7,o),
(1081.1,930.3,o),
(975.4,908.8,cs),
(702.5,853.3,o),
(428.6,928.1,o),
(192.8,851.8,cs)
);
},
{
closed = 1;
nodes = (
(799.2,863.5,o),
(766.2,854.8,o),
(766.2,829.6,cs),
(766.2,817.5,o),
(771.3,751.9,o),
(766.2,677.6,cs),
(760.7,596.6,o),
(744.9,505.2,o),
(744.9,461.3,cs),
(744.9,377,o),
(743,248.1,o),
(851.5,358.6,cs),
(915.8,424.1,o),
(901.9,505,o),
(901.9,829.6,cs),
(901.9,854.8,o),
(886.4,863.5,o),
(838.9,863.5,cs)
);
},
{
closed = 1;
nodes = (
(560.8,696.8,o),
(332.1,555.3,o),
(332.1,461.3,cs),
(332.1,367.3,o),
(443.9,344.6,o),
(443.9,326.2,cs),
(443.9,307.8,o),
(351.8,225.5,o),
(351.8,165.4,cs),
(351.8,105.3,o),
(409,52.1,o),
(499.1,52.1,cs),
(589.2,52.1,o),
(683.3,99.6,o),
(759.8,156.8,cs),
(836.3,214,o),
(869.2,247,o),
(848.9,273.1,cs),
(837.5,287.8,o),
(775.8,238.3,o),
(731.3,214.1,cs),
(686.8,189.9,o),
(659.5,176.3,o),
(622.7,176.3,cs),
(585.9,176.3,o),
(509.4,188,o),
(509.4,252.9,cs),
(509.4,317.8,o),
(659.6,417.7,o),
(648.9,440.9,cs),
(638.2,464.1,o),
(509.4,444.7,o),
(509.4,514.5,cs),
(509.4,567.8,o),
(532.7,576.5,o),
(553,576.5,cs),
(573.3,576.5,o),
(585.9,540.7,o),
(623.7,540.7,cs),
(661.5,540.7,o),
(697.3,586.3,o),
(697.3,622.1,cs),
(697.3,657.9,o),
(672.3,696.8,o),
(617,696.8,cs)
);
}
);
width = 1243.2;
}
);
unicode = (66,98);
},
{
glyphname = C;
kernRight = LowerPartEmpty;
lastChange = "2023-06-30 08:47:38 +0000";
layers = (
{
layerId = m01;
shapes = (
{
closed = 1;
nodes = (
(545.7,893.7,o),
(444.1,898.1,o),
(407.7,879.4,cs),
(371.3,860.7,o),
(362.4,759,o),
(292.9,759,cs),
(253.2,759,o),
(202.3,816.4,o),
(202.3,872.7,cs),
(202.3,957.7,o),
(182.1,945.8,o),
(112.9,873.8,cs),
(85.3,845.1,o),
(50,816.4,o),
(50,764.5,cs),
(50,712.6,o),
(112.9,638.7,o),
(196.8,638.7,cs),
(280.7,638.7,o),
(387.8,692.8,o),
(422,732.5,cs),
(456.2,772.2,o),
(466.2,775.2,o),
(562.2,774.5,cs),
(835.9,772.3,o),
(938.8,779.1,o),
(1039.1,844,cs),
(1100.9,884,o),
(1147.6,944.4,o),
(1132.9,966.6,cs),
(1115.3,993.1,o),
(1061.2,940.4,o),
(998.3,916.9,cs),
(952.9,900,o),
(894.5,893.7,o),
(720.1,893.7,c)
);
},
{
closed = 1;
nodes = (
(669.3,849.2,o),
(639.5,842.6,o),
(639.5,819.4,cs),
(639.5,375.6,ls),
(639.5,320.4,o),
(632.8,157.1,o),
(541.2,157.1,cs),
(449.6,157.1,o),
(414.4,195.7,o),
(549,284,cs),
(683.6,372.3,o),
(884.6,498.2,o),
(975.1,557.8,cs),
(1122.7,655,o),
(1053.1,688.8,o),
(934.2,614.1,cs),
(839.3,554.5,o),
(639.4,432.9,o),
(513.6,349.1,cs),
(387.8,265.3,o),
(364.4,234.2,o),
(321.2,222.7,cs),
(284.4,212.9,o),
(261.9,200.2,o),
(261.9,154.9,cs),
(261.9,109.6,o),
(362.3,30.1,o),
(457.3,30.1,cs),
(552.3,30.1,o),
(774.2,188,o),
(774.2,300.6,cs),
(774.2,824.9,ls),
(774.2,845.9,o),
(764.2,849.2,o),
(727.8,849.2,cs)
);
},
{
closed = 1;
nodes = (
(255.7,410.1,o),
(289.3,443.6,o),
(289.3,485.1,cs),
(289.3,526.5,o),
(255.7,560.1,o),
(214.3,560.1,cs),
(172.9,560.1,o),
(139.3,526.5,o),
(139.3,485.1,cs),
(139.3,443.6,o),
(172.9,410.1,o),
(214.3,410.1,cs)
);
}
);
width = 1185.6;
}
);
unicode = (67,99);
},
{
glyphname = D;
lastChange = "2023-06-30 08:47:41 +0000";
layers = (
{
layerId = m01;
shapes = (
{
closed = 1;
nodes = (
(416.3,825,o),
(426.8,855.3,o),
(377.1,855.3,cs),
(240.8,855.3,o),
(222.8,905.2,o),
(186.7,905.2,cs),
(150.5,905.2,o),
(50,806.8,o),
(50,744.7,cs),
(50,682.6,o),
(81.9,653.8,o),
(81.9,500.7,cs),
(81.9,347.6,o),
(67.1,336.2,o),
(67.1,288.1,cs),
(67.1,240,o),
(105.4,164.1,o),
(173.9,164.1,cs),
(242.3,164.1,o),
(311.3,196.6,o),
(422.7,309.1,cs),
(542.3,429.8,o),
(558.7,498.1,o),
(535.7,518.6,cs),
(515,537.3,o),
(458.6,490.7,o),
(421.3,449.4,cs),
(387.3,411.6,o),
(368.5,372.4,o),
(358.4,342,cs),
(348.4,311.5,o),
(309.9,291.5,o),
(283.2,291.5,cs),
(256.6,291.5,o),
(224.3,329.2,o),
(224.3,370.9,cs),
(224.3,412.6,o),
(233.2,446.4,o),
(233.2,546.2,cs),
(233.2,666,ls),
(233.2,684.2,o),
(233.4,701.7,o),
(219.1,713.7,cs),
(202.3,728.1,o),
(195.4,741.3,o),
(218.2,755.6,cs),
(241,770.1,o),
(280.8,785.8,o),
(311.7,785.8,cs),
(342.8,785.8,o),
(385.9,785.6,o),
(396.9,799.7,cs)
);
},
{
closed = 1;
nodes = (
(562.1,995.9,o),
(464,941.5,o),
(357,828.8,cs),
(249.9,716.1,o),
(200.1,658,o),
(215,642.1,cs),
(231,625.4,o),
(276.1,648.1,o),
(308.8,681.5,cs),
(342.7,716.1,o),
(394.2,731.3,o),
(430.6,773.2,cs),
(552.4,913.4,o),
(600.6,959.3,o),
(576.3,982.3,cs)
);
},
{
closed = 1;
nodes = (
(648.7,859.5,o),
(581.7,846.4,o),
(526.8,806.8,cs),
(492.1,781.9,o),
(499.2,742.3,o),
(556.7,742.3,cs),
(763.2,742.3,ls),
(814,742.3,o),
(902.5,752.7,o),
(1000.4,825.8,cs),
(1098.3,898.8,o),
(1176.2,975.8,o),
(1157.9,996.3,cs),
(1147.9,1007.4,o),
(1097.1,981.6,o),
(1019.5,924.2,cs),
(982.1,896.4,o),
(879,859.5,o),
(817.7,859.5,cs)
);
},
{
closed = 1;
nodes = (
(786.9,822.5,o),
(731.6,818.4,o),
(731.6,800.7,cs),
(731.6,361,l),
(737.9,351.6,o),
(750.5,343.7,o),
(750.5,332.9,cs),
(750.5,322.2,o),
(685.6,287.3,o),
(620.9,230.3,cs),
(556.4,173.3,o),
(514.8,119.5,o),
(536.1,99.2,cs),
(557.2,78.9,o),
(608.6,95.2,o),
(624.7,114.8,cs),
(640.9,134.3,o),
(713.1,144.3,o),
(741.5,119.1,cs),
(763.7,99.5,o),
(806.8,99.1,o),
(900.7,99.1,cs),
(944.6,99.1,o),
(994.1,134,o),
(1029.5,162.9,cs),
(1070.8,196.3,o),
(1140.4,251,o),
(1122.3,275.8,cs),
(1104.1,300.6,o),
(1039.4,258.7,o),
(1014.7,239.7,cs),
(990.1,220.7,o),
(967,215.9,o),
(937,215.9,cs),
(906.9,215.9,o),
(850,220.7,o),
(850,251,cs),
(850,288.1,o),
(889.9,280.5,o),
(889.9,335.6,cs),
(889.9,804.6,ls),
(889.9,815.8,o),
(862.5,822.5,o),
(825.2,822.5,cs)
);
},
{
closed = 1;
nodes = (
(698.8,37.8,o),
(610.6,-28.1,o),
(610.6,-60.7,cs),
(610.6,-93.2,o),
(686.6,-102.6,o),
(732.7,-102.6,cs),
(893,-102.6,o),
(1029.5,42,o),
(1016.1,63.7,cs),
(1002.6,85.4,o),
(947.3,56.7,o),
(927.6,45,cs),
(907.9,33.2,o),
(861.2,7.8,o),
(835.8,7.8,cs),
(814,7.8,o),
(793.6,37.8,o),
(745.6,37.8,cs)
);
}
);
width = 1210.6;
}
);
unicode = (68,100);
},
{
glyphname = E;
kernLeft = LowerPartLong;
lastChange = "2023-06-30 08:47:45 +0000";
layers = (
{
layerId = m01;
shapes = (
{
closed = 1;
nodes = (
(550.5,942.7,o),
(328.8,797.3,o),
(328.8,673.4,cs),
(328.8,633.7,o),
(363.6,594,o),
(417.8,594,cs),
(482.7,594,o),
(536.8,640.9,o),
(536.8,693.8,cs),
(536.8,725.1,o),
(491.1,733.6,o),
(491.1,757.6,cs),
(491.1,781.6,o),
(538,816.5,o),
(633,816.5,cs),
(752.8,816.5,o),
(890.4,725.1,o),
(890.4,501.4,cs),
(890.4,293.4,o),
(780.1,183.8,o),
(622.6,183.8,cs),
(465.1,183.8,o),
(411.4,260.3,o),
(485.9,332.2,cs),
(537.8,382.2,o),
(569.6,328.5,o),
(537.7,298.7,cs),
(505.8,268.9,o),
(277.9,182.4,o),
(219.4,146.4,cs),
(168.8,115.2,o),
(33.6,37.4,o),
(51.6,1.7,cs),
(69.6,-34,o),
(207.6,48.7,o),
(274.2,90.4,cs),
(340.8,132.1,o),
(701.1,295.8,o),
(701.1,390.1,cs),
(701.1,455.6,o),
(668,475,o),
(595.7,475,cs),
(523.4,475,o),
(321.5,376.3,o),
(321.5,237.2,cs),
(321.5,124.6,o),
(417.4,53.6,o),
(518.8,53.6,cs),
(709.2,53.6,o),
(1060.8,257.6,o),
(1060.8,569.9,cs),
(1060.8,850.3,o),
(900.6,942.7,o),
(713.6,942.7,c)
);
},
{
closed = 1;
nodes = (
(1016.6,17.1,o),
(1050.2,50.7,o),
(1050.2,92.1,cs),
(1050.2,133.5,o),
(1016.6,167.1,o),
(975.2,167.1,cs),
(933.7,167.1,o),
(900.2,133.5,o),
(900.2,92.1,cs),
(900.2,50.7,o),
(933.7,17.1,o),
(975.2,17.1,cs)
);
}
);
width = 1110.8;
}
);
unicode = (69,101);
},
{
glyphname = F;
kernRight = LowerPartEmpty;
lastChange = "2023-06-30 08:47:49 +0000";
layers = (
{
layerId = m01;
shapes = (
{
closed = 1;
nodes = (
(420.8,970.1,o),
(332,879.9,o),
(369.9,831.5,cs),
(389.2,806.9,o),
(405.1,861.5,o),
(502.2,861.5,cs),
(599.4,861.5,o),
(645,824.9,o),
(876.5,824.9,cs),
(1108,824.9,o),
(1333,928.4,o),
(1312.6,964.2,cs),
(1292.2,1000,o),
(1154.5,932.4,o),
(900.7,932.4,cs),
(747.8,932.4,o),
(726.7,970.1,o),
(578.3,970.1,cs)
);
},
{
closed = 1;
nodes = (
(299.7,743.5,o),
(174.2,644.7,o),
(197.1,613.2,cs),
(220.1,581.6,o),
(253.1,612.5,o),
(315.3,612.5,cs),
(377.6,612.5,o),
(383.4,576.9,o),
(451.7,576.9,cs),
(550.2,576.9,o),
(742.4,721.5,o),
(720.9,751.4,cs),
(699.4,781.3,o),
(591.5,691.7,o),
(540.8,691.7,cs),
(511.4,691.7,o),
(509.5,743.5,o),
(406,743.5,c)
);
},
{
closed = 1;
nodes = (
(780.3,901.5,o),
(752.8,895.7,o),
(752.8,864.5,cs),
(752.8,441.3,ls),
(752.8,400.5,o),
(654.4,324,o),
(494.7,176.9,cs),
(335,29.8,o),
(239.2,-69.4,o),
(260,-92.3,cs),
(280.9,-115.1,o),
(388.4,-30.1,o),
(551.3,107.7,cs),
(719.3,249.6,o),
(860.7,353.2,o),
(860.7,508.1,cs),
(860.7,870.1,ls),
(860.7,895.1,o),
(845.6,901.5,o),
(820.1,901.5,cs)
);
},
{
closed = 1;
nodes = (
(993.7,904.2,o),
(953.2,901.3,o),
(953.2,870.4,cs),
(953.2,395.5,ls),
(953.2,329.6,o),
(975.5,315.1,o),
(1040.4,366.4,cs),
(1105.3,417.7,o),
(1274.3,592.9,o),
(1253.1,618.5,cs),
(1231.9,644.2,o),
(1167.3,569.8,o),
(1133.6,535.5,cs),
(1100,501.3,o),
(1085,515.9,o),
(1085,549.9,cs),
(1085,874,ls),
(1085,899.3,o),
(1070.6,904.2,o),
(1030.4,904.2,cs)
);
},
{
closed = 1;
nodes = (
(166.4,652.1,o),
(200,685.7,o),
(200,727.1,cs),
(200,768.6,o),
(166.4,802.1,o),
(125,802.1,cs),
(83.6,802.1,o),
(50,768.6,o),
(50,727.1,cs),
(50,685.7,o),
(83.6,652.1,o),
(125,652.1,cs)
);
},
{
closed = 1;
nodes = (
(166.4,452.1,o),
(200,485.7,o),
(200,527.1,cs),
(200,568.6,o),
(166.4,602.1,o),
(125,602.1,cs),
(83.6,602.1,o),
(50,568.6,o),
(50,527.1,cs),
(50,485.7,o),
(83.6,452.1,o),
(125,452.1,cs)
);
}
);
width = 1363.9;
}
);
unicode = (70,102);
},
{
glyphname = G;
kernRight = LowerPartEmpty;
lastChange = "2023-06-30 08:47:52 +0000";
layers = (
{
layerId = m01;
shapes = (
{
closed = 1;
nodes = (
(237.1,773.2,l),
(237.1,773.2,o),
(825.7,749.2,o),
(1065.7,804.9,c),
(1189.1,825.7,o),
(1328,973.2,o),
(1309.8,996.7,cs),
(1291.5,1020,o),
(1156.3,901.3,o),
(975.2,889.6,cs),
(794.2,878,o),
(304.3,872.4,o),
(304.3,872.4,c)
);
},
{
closed = 1;
nodes = (
(245.4,1173.5,o),
(202.3,1145.1,o),
(202.3,1089.8,cs),
(202.3,1034.4,o),
(260.8,1003.9,o),
(260.8,911.2,cs),
(260.8,818.5,o),
(50,692.5,o),
(50,487.2,cs),
(50,391,o),
(89.6,333.5,o),
(215.3,333.5,cs),
(341,333.5,o),
(455,509.4,o),
(466.4,509.4,cs),
(477.7,509.4,o),
(420.1,401.3,o),
(565.7,401.3,cs),
(780,401.3,o),
(908.1,640.3,o),
(895.7,659.4,cs),
(883.2,678.4,o),
(716,507.3,o),
(635.2,507.3,cs),
(554.4,507.3,o),
(542.5,661.4,o),
(520.6,661.4,cs),
(498.8,661.4,o),
(362.7,475,o),
(275.4,475,cs),
(213.1,475,o),
(185.8,510.7,o),
(185.8,559.9,cs),
(185.8,687.5,o),
(417.7,866.4,o),
(417.7,1010.5,cs),
(417.7,1124.8,o),
(359.5,1173.5,o),
(302,1173.5,cs)
);
},
{
closed = 1;
nodes = (
(818.4,852.6,o),
(805.2,843.2,o),
(805.2,810.7,cs),
(805.2,135,ls),
(805.2,41.7,o),
(786.9,9,o),
(754.5,9,cs),
(690.2,9,o),
(682.1,59.7,o),
(624.2,59.7,cs),
(576.4,59.7,o),
(551.2,25.6,o),
(551.2,-23.1,cs),
(551.2,-71.9,o),
(593.3,-95.7,o),
(677.8,-95.7,cs),
(825.7,-95.7,o),
(939.6,57.8,o),
(939.6,188.8,cs),
(939.6,817.6,ls),
(939.6,840.3,o),
(928.9,852.6,o),
(874.9,852.6,cs)
);
}
);
width = 1361.4;
}
);
unicode = (71,103);
},
{
glyphname = H;
kernRight = LowerPartEmpty;
lastChange = "2023-06-30 08:48:01 +0000";
layers = (
{
layerId = m01;
shapes = (
{
closed = 1;
nodes = (
(603.7,908.2,o),
(516.5,837.3,o),
(527.7,817.7,cs),
(538.9,798,o),
(674,843.2,o),
(759,856.2,cs),
(890.9,876.4,o),
(1112.6,856.2,o),
(1232.5,866.7,cs),
(1434.6,884.5,o),
(1524.4,974.7,o),
(1513.9,992.7,cs),
(1503.5,1010.8,o),
(1430.8,979.8,o),
(1305.9,958.8,cs),
(1154.1,933.5,o),
(862.6,953.4,o),
(773.3,937.8,cs)
);
},
{
closed = 1;
nodes = (
(915.7,926.1,o),
(874.2,916.2,o),
(874.2,894,cs),
(874.2,877.1,o),
(876.2,456.8,o),
(876.2,238.3,cs),
(876.2,73.6,o),
(805.6,6.1,o),
(731.1,6.1,cs),
(681.9,6.1,o),
(671.7,73.6,o),
(600.6,73.6,cs),
(547.8,73.6,o),
(507.1,38.7,o),
(507.1,-10.3,cs),
(507.1,-62.3,o),
(547.8,-99.4,o),
(619.8,-99.4,cs),
(939.6,-99.4,o),
(1041.9,196.3,o),
(1041.9,334.8,cs),
(1041.9,898.6,l),
(1041.9,923.6,o),
(1007.4,926.1,o),
(966.6,926.1,cs)
);
},
{
closed = 1;
nodes = (
(146.6,929.1,o),
(89.3,893.2,o),
(89.3,803.7,cs),
(89.3,714.2,o),
(162.1,724.9,o),
(162.1,681.9,cs),
(162.1,639,o),
(50,575.7,o),
(50,376.4,cs),
(50,259.5,o),
(130,222.3,o),
(199.2,222.3,cs),
(268.5,222.3,o),
(362.7,268.9,o),
(362.7,303.6,cs),
(362.7,338.2,o),
(338.8,342.9,o),
(314.9,332.1,cs),
(301.4,326,o),
(277.2,335.6,o),
(250.7,361.1,cs),
(230.8,380.3,o),
(205.2,405.3,o),
(205.2,456.8,cs),
(205.2,631.8,o),
(298.4,687.9,o),
(298.4,770.3,cs),
(298.4,807.4,o),
(272,832.8,o),
(254,861,cs),
(232.2,895.4,o),
(215.8,929.1,o),
(183.7,929.1,c)
);
},
{
closed = 1;
nodes = (
(513.6,593.2,o),
(547.2,626.8,o),
(547.2,668.2,cs),
(547.2,709.6,o),
(513.6,743.2,o),
(472.2,743.2,cs),
(430.8,743.2,o),
(397.2,709.6,o),
(397.2,668.2,cs),
(397.2,626.8,o),
(430.8,593.2,o),
(472.2,593.2,cs)
);
},
{
closed = 1;
nodes = (
(513.6,359.2,o),
(547.2,392.8,o),
(547.2,434.2,cs),
(547.2,475.6,o),
(513.6,509.2,o),
(472.2,509.2,cs),
(430.8,509.2,o),
(397.2,475.6,o),
(397.2,434.2,cs),
(397.2,392.8,o),
(430.8,359.2,o),
(472.2,359.2,cs)
);
}
);
width = 1564.7;
}
);
unicode = (72,104);
},
{
glyphname = I;
kernRight = LowerPartEmpty;
lastChange = "2023-06-30 08:48:05 +0000";
layers = (
{
layerId = m01;
shapes = (
{
closed = 1;
nodes = (
(126.3,886.6,o),
(38.9,789.5,o),
(51.1,771.4,cs),
(63.2,753.3,o),
(173.6,817,o),
(264.5,831.5,cs),
(386.2,850.9,o),
(762.7,831.3,o),
(862,849.6,cs),
(991.7,873.4,o),
(1094.2,974,o),
(1084.6,994.6,cs),
(1075,1015.3,o),
(979.7,949.2,o),
(889.7,936.8,cs),
(749.3,917.4,o),
(463.4,944,o),
(306.7,917.4,cs)
);
},
{
closed = 1;
nodes = (
(567.4,1120.4,o),
(438.2,1040.3,o),
(383.9,999.3,cs),
(329.7,958.4,o),
(320,923.2,o),
(320,872.6,cs),
(320,822,o),
(350.1,740,o),
(350.1,604.9,cs),
(350.1,473.6,o),
(344.9,448.2,o),
(324.5,420.6,cs),
(298,384.7,o),
(312.5,341.8,o),
(320,331,cs),
(334.4,310.6,o),
(399.6,334.9,o),
(451.4,390.3,cs),
(503.2,445.7,o),
(637.3,495.1,o),
(625.3,508.2,cs),
(613.2,521.4,o),
(488.8,484.3,o),
(485.1,548.2,c),
(485.1,758,l),
(485.1,831.5,o),
(440.6,929.4,o),
(449,965.5,cs),
(457.5,1001.7,o),
(593.6,1062,o),
(578,1097,cs)
);
},
{
closed = 1;
nodes = (
(633.5,436.8,o),
(744.9,444.2,o),
(830.7,509.2,cs),
(916.5,574.1,o),
(944,672.1,o),
(892.1,727.9,cs),
(840.1,783.7,o),
(728.6,776.4,o),
(642.9,711.4,cs),
(557.1,646.4,o),
(529.7,548.5,o),
(581.5,492.6,cs)
);
},
{
closed = 1;
nodes = (
(638.7,161.1,o),
(758.2,169,o),
(850.3,238.7,cs),
(942.3,308.4,o),
(971.8,413.5,o),
(916.1,473.5,cs),
(860.3,533.4,o),
(740.7,525.4,o),
(648.6,455.6,cs),
(556.8,386,o),
(527.2,280.9,o),
(582.9,221,cs)
);
},
{
closed = 1;
nodes = (
(710,541.2,o),
(681.7,569.5,o),
(681.7,604.4,cs),
(681.7,639.3,o),
(710,667.6,o),
(744.9,667.6,cs),
(779.8,667.6,o),
(808.2,639.3,o),
(808.2,604.4,cs),
(808.2,569.5,o),
(779.8,541.2,o),
(744.9,541.2,cs)
);
},
{
closed = 1;
nodes = (
(709,290.3,o),
(677.7,321.5,o),
(677.7,359.8,cs),
(677.7,398.3,o),
(709,429.4,o),
(747.3,429.4,cs),
(785.8,429.4,o),
(816.9,398.3,o),
(816.9,359.8,cs),
(816.9,321.5,o),
(785.8,290.3,o),
(747.3,290.3,cs)
);
},
{
closed = 1;
nodes = (
(711.9,252.7,o),
(685.3,237.1,o),
(685.3,217.8,cs),
(685.3,48.8,l),
(684.9,27,o),
(660.1,-7.8,o),
(638.7,-29.6,cs),
(615.6,-53.1,o),
(573.1,-86,o),
(582.8,-98.3,cs),
(592.5,-110.4,o),
(744.4,-19.8,o),
(766.2,7.9,cs),
(787.9,35.6,o),
(816.9,59.8,o),
(816.9,128.5,cs),
(816.9,197.2,ls),
(816.9,238.3,o),
(797.7,252.7,o),
(749.3,252.7,cs)
);
}
);
width = 1135.2;
}
);
unicode = (73,105);
},
{
glyphname = J;
lastChange = "2023-06-30 08:48:14 +0000";
layers = (
{
layerId = m01;
shapes = (
{
closed = 1;
nodes = (
(692.1,941.9,o),
(677.2,936.3,o),
(677.2,926.9,cs),
(677.2,668.7,o),
(579.9,542.7,o),
(444.9,542.7,cs),
(421.1,542.7,o),
(404.9,549.7,o),
(404.9,568.3,cs),
(404.9,586.9,o),
(433.1,597.2,o),
(459.6,597.2,cs),
(583.4,597.2,o),
(686,473.2,o),
(811,473.2,cs),
(983.6,473.2,o),
(1070.5,579,o),
(1070.5,644.2,cs),
(1070.5,696.2,o),
(1046.4,714.1,o),
(982.1,714.1,cs),
(827.2,714.1,o),
(677.2,286.3,o),
(457.9,286.3,cs),
(418,286.3,o),
(401.4,295.9,o),
(401.4,315.4,cs),
(401.4,334.9,o),
(427.3,344.4,o),
(476.6,344.4,cs),
(595.2,344.4,o),
(677.2,238.9,o),
(849,238.9,cs),
(1023.3,238.9,o),
(1103.9,329.9,o),
(1103.9,404,cs),
(1103.9,461.9,o),
(1082.9,480.9,o),
(1043.1,480.9,cs),
(821.6,480.9,o),
(445.3,-14.4,o),
(235.6,-14.4,cs),
(181.9,-14.4,o),
(165.4,62.2,o),
(123.8,62.2,cs),
(82.2,62.2,o),
(50,33.1,o),
(50,-23.6,cs),
(50,-84.7,o),
(90.1,-108.5,o),
(177.1,-108.5,cs),
(507,-108.5,o),
(898.6,403.5,o),
(992.8,403.5,cs),
(1011.8,403.5,o),
(1026,396.8,o),
(1026,379.7,cs),
(1026,347.7,o),
(991.1,319.2,o),
(934,319.2,cs),
(770.7,319.2,o),
(685.9,419.2,o),
(479.8,419.2,cs),
(329.5,419.2,o),
(282.3,357.9,o),
(282.3,298.8,cs),
(282.3,239.7,o),
(330.6,220.7,o),
(395.4,220.7,cs),
(788.4,220.7,o),
(864.6,625.6,o),
(932.9,625.6,cs),
(953,625.6,o),
(964.4,617.4,o),
(964.4,602.1,cs),
(964.4,586.8,o),
(943.2,560.9,o),
(898.1,560.9,cs),
(709.7,560.9,o),
(667.7,681.3,o),
(455.5,681.3,cs),
(321.3,681.3,o),
(278.2,616.2,o),
(278.2,548.3,cs),
(278.2,480.4,o),
(329.7,455.1,o),
(395.4,455.1,cs),
(697.3,455.1,o),
(774,652.8,o),
(774,922.6,cs),
(774,936.7,o),
(758.5,941.9,o),
(728.6,941.9,c)
);
},
{
closed = 1;
nodes = (
(139.8,934.6,o),
(52.4,837.5,o),
(64.6,819.4,cs),
(76.7,801.3,o),
(187.1,865,o),
(278,879.5,cs),
(399.7,898.9,o),
(776.2,879.3,o),
(875.5,897.6,cs),
(1005.2,921.4,o),
(1107.7,1022,o),
(1098.1,1042.6,cs),
(1088.5,1063.3,o),
(993.2,997.2,o),
(903.2,984.8,cs),
(762.8,965.4,o),
(476.9,992,o),
(320.2,965.3,cs)
);
}
);
width = 1153.9;
}
);
unicode = (74,106);
},
{
glyphname = K;
kernRight = LowerPartEmpty;
lastChange = "2023-06-30 08:48:23 +0000";
layers = (
{
layerId = m01;
shapes = (
{
closed = 1;
nodes = (
(160,337.8,o),
(346.2,217.5,o),
(677.5,328.4,cs),
(986.4,431.9,o),
(1090.9,691.1,o),
(1050.7,831.8,cs),
(986.4,1056.6,o),
(785.5,1146.5,o),
(572,1067.6,cs),
(405.1,1005.9,o),
(222.6,784.7,o),
(302.3,627.7,cs),
(353.8,526.2,o),
(475.8,483.4,o),
(603.3,535.3,cs),
(711.2,579.1,o),
(744.2,612.9,o),
(735.2,645.4,cs),
(722.6,691.1,o),
(706.8,662.3,o),
(615.9,629.5,cs),
(558.5,608.7,o),
(460.8,665.9,o),
(437,754.8,cs),
(401.9,885.9,o),
(483.6,953.7,o),
(592,989.8,cs),
(700.6,1025.9,o),
(846.6,989.3,o),
(913.8,799.3,cs),
(961.7,663.4,o),
(844,463.8,o),
(652.4,403.1,cs),
(466.6,344.2,o),
(287.8,441,o),
(206.2,583.5,cs),
(155.9,671.2,o),
(140,847.9,o),
(96,831.8,cs),
(48,814.2,o),
(32.4,654.6,o),
(74.2,551,c)
);
},
{
closed = 1;
nodes = (
(316.6,770.2,o),
(349.4,742.6,o),
(354.9,726.5,cs),
(360.4,710.4,o),
(375.4,703.9,o),
(524.7,742,cs),
(674,780.1,o),
(886.9,743.8,o),
(1094.9,801,cs),
(1302.9,858.3,o),
(1341.1,974.8,o),
(1322.6,986.3,cs),
(1304,997.6,o),
(1230.5,909.9,o),
(1081.9,869.4,cs),
(933.4,828.7,o),
(690.8,867.4,o),
(503.3,818.2,c)
);
},
{
closed = 1;
nodes = (
(669,801.3,o),
(647.3,791.6,o),
(652.1,650,cs),
(663.8,304.4,o),
(694.6,35.1,o),
(585.4,1.7,cs),
(536.9,-13.1,o),
(531.1,31.4,o),
(510.4,65.9,cs),
(494.1,93.2,o),
(463.4,112.4,o),
(431.4,104.1,cs),
(380.2,90.8,o),
(370.4,42.2,o),
(385.2,-12,cs),
(405.2,-84.9,o),
(488,-119.1,o),
(591,-88.8,cs),
(806.3,-25.5,o),
(792.4,343.9,o),
(781.1,658.9,cs),
(776.3,795.5,o),
(767.1,803.6,o),
(716.6,802.4,cs)
);
}
);
width = 1376.7;
}
);
unicode = (75,107);
},
{
glyphname = L;
kernRight = LowerPartEmpty;
lastChange = "2023-06-30 08:48:26 +0000";
layers = (
{
layerId = m01;
shapes = (
{
closed = 1;
nodes = (
(86.1,847.6,o),
(40,787.1,o),
(51.8,766.7,cs),
(63.6,746.5,o),
(150.6,801.6,o),
(248.6,836.4,cs),
(387.7,886.1,o),
(683.5,824.8,o),
(878.9,903.9,cs),
(992.6,950.1,o),
(1081.4,1074.2,o),
(1065.3,1095.8,cs),
(1049.3,1117.2,o),
(935.7,1014.7,o),
(782.5,963.4,cs),
(629.3,911.9,o),
(351.9,982.1,o),
(175.1,892.6,cs)
);
},
{
closed = 1;
nodes = (
(618.2,925.8,o),
(595,916.8,o),
(595,897.5,cs),
(595,878.2,o),
(585.5,290.4,o),
(548.4,259.1,cs),
(364,103.6,o),
(177.5,-59.4,o),
(195.2,-91.7,cs),
(210.5,-119.6,o),
(438.2,44.5,o),
(670.9,258,cs),
(740.9,322,o),
(716.1,879.9,o),
(716.1,901.3,cs),
(716.1,922.8,o),
(688.2,925.8,o),
(657.7,925.8,cs)
);
}
);
width = 1117.2;
}
);
unicode = (76,108);
},
{
glyphname = M;
lastChange = "2023-06-30 08:48:29 +0000";
layers = (
{
layerId = m01;
shapes = (
{
closed = 1;
nodes = (
(427.7,1000,o),
(50,732.4,o),
(50,341,cs),
(50,99.6,o),
(206.3,0,o),
(338.5,0,cs),
(470.7,0,o),
(569.4,74.5,o),
(640.8,133.3,cs),
(712.1,192,o),
(912.6,364.1,o),
(680.6,364.1,cs),
(502.2,364.1,o),
(400.5,128.9,o),
(459.2,73.4,cs),
(517.9,17.8,o),
(695.1,35.6,o),
(765.6,84.9,cs),
(835.9,134.3,o),
(888.4,127.9,o),
(923,78.7,cs),
(957.6,29.4,o),
(1112.9,66.1,o),
(1112.9,140.6,cs),
(1112.9,215.1,o),
(997.5,197.2,o),
(974.5,232.9,cs),
(951.4,268.6,o),
(932.4,307.4,o),
(907.3,288.6,cs),
(882.1,269.7,o),
(644.8,80.8,o),
(568.3,173.1,cs),
(528,221.8,o),
(586.3,264.4,o),
(616.7,264.4,cs),
(647.1,264.4,o),
(728.9,118.5,o),
(390.9,118.5,cs),
(303.9,118.5,o),
(187.4,232.9,o),
(187.4,406,cs),
(187.4,620.1,o),
(339.7,866.7,o),
(611.4,866.7,cs),
(858,866.7,o),
(845.6,707.3,o),
(907.3,673.6,cs),
(976.6,635.8,o),
(1043.7,662.1,o),
(1016.3,794.3,cs),
(994.9,898.2,o),
(847.2,1000,o),
(681.6,1000,cs)
);
},
{
closed = 1;
nodes = (
(689,418.5,o),
(722.6,452.1,o),
(722.6,493.5,cs),
(722.6,534.9,o),
(689,568.5,o),
(647.6,568.5,cs),
(606.2,568.5,o),
(572.6,534.9,o),
(572.6,493.5,cs),
(572.6,452.1,o),
(606.2,418.5,o),
(647.6,418.5,cs)
);
}
);
width = 1162.9;
}
);
unicode = (77,109);
},
{
glyphname = N;
lastChange = "2023-06-30 08:48:33 +0000";
layers = (
{
layerId = m01;
shapes = (
{
closed = 1;
nodes = (
(453.3,901.5,o),
(208.8,684.1,o),
(208.8,384.9,cs),
(208.8,206.7,o),
(330.4,103.4,o),
(510.2,103.4,cs),
(757.6,103.4,o),
(893.2,279.3,o),
(874.5,311.6,cs),
(845.8,361.6,o),
(757.6,216.6,o),
(616.5,216.6,cs),
(454,216.6,o),
(346.4,320.2,o),
(346.4,462.3,cs),
(346.4,604.4,o),
(463.2,781.3,o),
(632.9,781.3,cs),
(739.7,781.3,o),
(790,715.1,o),
(867.3,715.1,cs),
(913.6,715.1,o),
(938.8,734.8,o),
(938.8,773.1,cs),
(938.8,829.8,o),
(906,901.5,o),
(742,901.5,cs)
);
},
{
closed = 1;
nodes = (
(158.4,569.5,o),
(35.1,451.9,o),
(51.5,425.6,cs),
(67.8,399.4,o),
(173.4,465.8,o),
(268.7,465.8,cs),
(1138,465.8,ls),
(1344.7,465.8,o),
(1465.4,580.3,o),
(1446.1,606.3,cs),
(1428.5,630,o),
(1309,569.5,o),
(1150.4,569.5,cs),
(318.8,569.5,l)
);
},
{
closed = 1;
nodes = (
(982.2,540.5,o),
(952.4,535.5,o),
(952.4,517.6,cs),
(952.4,289.3,ls),
(952.4,178.4,o),
(1001,110.9,o),
(1122.6,110.9,cs),
(1332,110.9,o),
(1533.2,311.4,o),
(1513.7,343.7,cs),
(1477.6,404,o),
(1327.6,220.5,o),
(1222.4,220.5,cs),
(1150.4,220.5,o),
(1099.1,291.3,o),
(1099.1,377.7,cs),
(1099.1,519.8,ls),
(1099.1,534.5,o),
(1075.7,540.5,o),
(1029,540.5,cs)
);
},
{
closed = 1;
nodes = (
(651.6,273,o),
(685.2,306.6,o),
(685.2,348,cs),
(685.2,389.4,o),
(651.6,423,o),
(610.2,423,cs),
(568.8,423,o),
(535.2,389.4,o),
(535.2,348,cs),
(535.2,306.6,o),
(568.8,273,o),
(610.2,273,cs)
);
}
);
width = 1565;
}
);
unicode = (78,110);
},
{
glyphname = O;
kernRight = LowerPartEmpty;
lastChange = "2023-06-30 08:48:37 +0000";
layers = (
{
backgroundImage = {
imagePath = "解包/单独字母/18.jpg";
pos = (-878.6,-81.1);
scale = (23.2558,23.2558);
};
layerId = m01;
shapes = (
{
closed = 1;
nodes = (
(289.4,1100.3,o),
(50,895.1,o),
(50,695.9,cs),
(50,527.3,o),
(158.6,444.2,o),
(283.9,444.2,cs),
(403.6,444.2,o),
(557.4,554.5,o),
(557.4,706.2,cs),
(557.4,736.1,o),
(530.2,736.1,o),
(513.3,736.1,cs),
(496.3,736.1,o),
(461.6,736.3,o),
(461.6,712.4,cs),
(461.6,646.2,o),
(412.1,550.7,o),
(346.4,550.7,cs),
(280.6,550.7,o),
(184.3,593.6,o),
(184.3,755.4,cs),
(184.3,917.2,o),
(282.1,982.9,o),
(367.6,982.9,cs),
(461.6,982.9,o),
(461.6,930.4,o),
(510.8,930.4,cs),
(559.9,930.4,o),
(581.8,958.3,o),
(581.8,1003,cs),
(581.8,1047.7,o),
(548,1100.3,o),
(445.9,1100.3,cs)
);
},
{
closed = 1;
nodes = (
(299.5,767.5,o),
(216.4,676.9,o),
(234.2,652.8,cs),
(251.9,628.8,o),
(295.2,678.6,o),
(349.6,678.6,cs),
(659.5,678.6,ls),
(749,678.6,o),
(952.8,805.5,o),
(936.9,841.4,cs),
(921,877.3,o),
(806.1,767.5,o),
(659.5,767.5,cs),
(389,767.5,l)
);
},
{
closed = 1;
nodes = (
(652.6,743,o),
(629,739.2,o),
(629,718.8,cs),
(629,393.7,ls),
(629,372,o),
(622.1,340.3,o),
(488.4,182.1,cs),
(354.9,23.8,o),
(281.7,-69.5,o),
(305.6,-93.2,cs),
(329.3,-117,o),
(395.4,-38.3,o),
(528.4,134.6,cs),
(661.5,307.6,o),
(742.9,415.7,o),
(742.9,463.6,cs),
(742.9,723.2,ls),
(742.9,736.2,o),
(730.4,743,o),
(691.7,743,cs)
);
}
);
width = 987.8;
}
);
unicode = (79,111);
},
{
glyphname = P;
lastChange = "2023-06-30 08:48:45 +0000";
layers = (
{
layerId = m01;
shapes = (
{
closed = 1;
nodes = (
(250.2,1000,o),
(50,850.3,o),
(50,612.8,cs),
(50,375.4,o),
(200.8,283.7,o),
(353.1,283.7,cs),
(604.3,283.7,o),
(836,464.1,o),
(836,647,cs),
(836,750.4,o),
(805.4,768.3,o),
(768.6,768.3,cs),
(675.2,768.3,o),
(538.1,662.1,o),
(538.1,552.5,cs),
(538.1,195.6,ls),
(538.1,148.5,o),
(508.2,111.7,o),
(464.2,111.7,cs),
(419.3,111.7,o),
(402.7,210.1,o),
(350.3,210.1,cs),
(284.4,210.1,o),
(253.9,187.5,o),
(253.9,113,cs),
(253.9,38.5,o),
(319.4,0,o),
(385.4,0,cs),
(508.2,0,o),
(651.7,104.6,o),
(651.7,276.5,cs),
(651.7,562.5,ls),
(651.7,623.8,o),
(664.2,638.2,o),
(681.6,638.2,cs),
(694.5,638.2,o),
(699.5,621.5,o),
(699.5,571.8,cs),
(699.5,485.9,o),
(593.2,395.3,o),
(475.2,395.3,cs),
(320.3,395.3,o),
(202.3,473.8,o),
(202.3,679.7,cs),
(202.3,842.6,o),
(249.9,880,o),
(307.6,880,cs),
(365.3,880,o),
(430,800.1,o),
(493.5,800.1,cs),
(538.1,800.1,o),
(574.3,834.3,o),
(574.3,878.7,cs),
(574.3,932.7,o),
(508.2,1000,o),
(414.5,1000,c)
);
},
{
closed = 1;
nodes = (
(795,40.5,o),
(828.5,74.1,o),
(828.5,115.5,cs),
(828.5,156.9,o),
(795,190.5,o),
(753.5,190.5,cs),
(712.1,190.5,o),
(678.5,156.9,o),
(678.5,115.5,cs),
(678.5,74.1,o),
(712.1,40.5,o),
(753.5,40.5,cs)
);
},
{
closed = 1;
nodes = (
(795,230.5,o),
(828.5,264.1,o),
(828.5,305.5,cs),
(828.5,346.9,o),
(795,380.5,o),
(753.5,380.5,cs),
(712.1,380.5,o),
(678.5,346.9,o),
(678.5,305.5,cs),
(678.5,264.1,o),
(712.1,230.5,o),
(753.5,230.5,cs)
);
}
);
width = 886;
}
);
unicode = (80,112);
},
{
glyphname = Q;
kernRight = LowerPartEmpty;
lastChange = "2023-06-30 08:48:50 +0000";
layers = (
{
layerId = m01;
shapes = (
{
closed = 1;
nodes = (
(331.8,90.2,o),
(187.1,273.3,o),
(187.1,499.1,cs),
(187.1,725,o),
(331.8,908,o),
(510.5,908,cs),
(689.1,908,o),
(833.9,725,o),
(833.9,499.1,cs),
(833.9,273.3,o),
(689.1,90.2,o),
(510.5,90.2,cs)
);
},
{
closed = 1;
nodes = (
(457.8,-68.7,o),
(739.9,32.8,o),
(880,279.6,cs),
(1020.3,526.7,o),
(965.6,825.9,o),
(757.9,947.6,cs),
(550.1,1069.7,o),
(268,968.3,o),
(127.8,721.3,cs),
(-12.5,474.2,o),
(42.3,175.3,o),
(250,53.2,cs)
);
},
{
closed = 1;
nodes = (
(558.9,430,o),
(590.2,461.4,o),
(590.2,500.1,cs),
(590.2,538.8,o),
(558.9,570.1,o),
(520.2,570.1,cs),
(481.5,570.1,o),
(450.1,538.8,o),
(450.1,500.1,cs),
(450.1,461.4,o),
(481.5,430,o),
(520.2,430,cs)
);
}
);
width = 1007.8;
}
);
unicode = (81,113);
},
{
glyphname = R;
kernRight = LowerPartEmpty;
lastChange = "2023-06-30 08:48:54 +0000";
layers = (
{
layerId = m01;
shapes = (
{
closed = 1;
nodes = (
(234.2,890.7,o),
(157.8,805.6,o),
(164.2,787.5,cs),
(170.5,769.5,o),
(218.6,802.8,o),
(344,851.2,cs),
(461.1,896.4,o),
(710.7,870.7,o),
(882.1,911.8,cs),
(1014.6,943.6,o),
(1089.4,1076.9,o),
(1076.7,1094.8,cs),
(1064,1112.8,o),
(1026.5,1051,o),
(899.7,998.2,cs),
(781.3,948.9,o),
(486.7,1009,o),
(349.8,944.8,cs)
);
},
{
closed = 1;
nodes = (
(554.5,943.5,o),
(523.8,937.1,o),
(523.8,908.6,cs),
(523.8,880.1,o),
(557.7,737.4,o),
(557.7,648.4,cs),
(557.7,559.5,o),
(506.2,475.5,o),
(436,435.8,cs),
(374.6,401.1,o),
(262.7,381.9,o),
(234.1,418.9,cs),
(205.4,455.9,o),
(250.8,543.8,o),
(392.7,543.8,cs),
(534.5,543.8,o),
(594.7,476,o),
(594.7,349.1,cs),
(594.7,222.2,o),
(433.9,118.4,o),
(321.8,118.4,cs),
(274.2,118.4,o),
(256.2,124.8,o),
(230.8,147,cs),
(205.4,169.3,o),
(116.8,162.9,o),
(96.6,125.9,cs),
(68,73.4,o),
(67,0,o),
(199.2,0,cs),
(420.1,0,o),
(744.9,189.4,o),
(744.9,391.5,cs),
(744.9,593.4,o),
(623.3,666.4,o),
(486.8,666.4,cs),
(262.7,666.4,o),
(50,560.6,o),
(50,363.9,cs),
(50,290.9,o),
(92.4,256,o),
(217.1,256,cs),
(398,256,o),
(702.5,451.7,o),
(702.5,708.7,cs),
(702.5,900.1,o),
(650.8,943.5,o),
(608.4,943.5,c)
);
},
{
closed = 1;
nodes = (
(173.5,841.2,o),
(207,874.8,o),
(207,916.2,cs),
(207,957.6,o),
(173.5,991.2,o),
(132,991.2,cs),
(90.6,991.2,o),
(57,957.6,o),
(57,916.2,cs),
(57,874.8,o),
(90.6,841.2,o),
(132,841.2,cs)
);
}
);
width = 1128.1;
}
);
unicode = (82,114);
},
{
glyphname = S;
lastChange = "2023-06-30 08:48:57 +0000";
layers = (
{
layerId = m01;
shapes = (
{
closed = 1;
nodes = (
(120.5,882.9,o),
(37.2,732.8,o),
(51.6,716,cs),
(66,699.3,o),
(186.4,798.6,o),
(290.2,825.1,cs),
(425.3,859.8,o),
(749.6,826.7,o),
(916.8,866,cs),
(1074,903,o),
(1161.1,1029.4,o),
(1150.8,1046.8,cs),
(1140.7,1064.2,o),
(1038.6,1000,o),
(913.4,968,cs),
(772.6,932,o),
(507.6,973.6,o),
(283.2,921,cs)
);
},
{
closed = 1;
nodes = (
(628.1,911.1,o),
(585.6,908.3,o),
(585.6,883.7,cs),
(585.6,463.3,l),
(717.7,463.3,l),
(717.7,890.6,ls),
(717.7,903.1,o),
(697.9,911.1,o),
(660.9,911.1,cs)
);
},
{
closed = 1;
nodes = (
(535.8,542.9,o),
(411.9,428.4,o),
(411.9,289.5,cs),
(411.9,224.8,o),
(456.1,189.9,o),
(548.5,189.9,cs),
(685.1,189.9,o),
(825.7,343.5,o),
(825.7,425.5,cs),
(825.7,520.8,o),
(762.5,542.9,o),
(685.1,542.9,c)
);
},
{
closed = 1;
nodes = (
(556.6,410.6,o),
(599.8,421.4,o),
(637.2,421.4,cs),
(671.7,421.4,o),
(686.5,373.3,o),
(656.8,331.7,cs),
(627.1,290.1,o),
(556.6,289.9,o),
(556.6,364.2,cs)
);
},
{
closed = 1;
nodes = (
(561.1,764.8,o),
(98.1,550.9,o),
(98.1,246.2,cs),
(98.1,93.6,o),
(248.4,0.7,o),
(424.4,0.7,cs),
(699.1,0.7,o),
(759.4,128.7,o),
(817.7,128.7,cs),
(847.5,128.7,o),
(860.7,24.3,o),
(959.3,24.3,cs),
(1030.6,24.3,o),
(1116.6,92.1,o),
(1116.6,119.8,cs),
(1116.6,147.7,o),
(1030.4,132.5,o),
(997.3,178.9,cs),
(956,237,o),
(948.1,291.7,o),
(914.2,291.7,cs),
(880.2,291.7,o),
(697.4,113,o),
(529.8,113,cs),
(362.4,113,o),
(248.9,194,o),
(248.9,298.4,cs),
(248.9,421.4,o),
(471.8,648,o),
(705.8,648,cs),
(825.7,648,o),
(844.6,554.2,o),
(947.7,554.2,cs),
(998.7,554.2,o),
(1022.7,590.7,o),
(1022.7,623.9,cs),
(1022.7,666.1,o),
(959.8,764.8,o),
(781.4,764.8,c)
);
}
);
width = 1201.6;
}
);
unicode = (83,115);
},
{
glyphname = T;
lastChange = "2023-06-30 08:49:01 +0000";
layers = (
{
layerId = m01;
shapes = (
{
closed = 1;
nodes = (
(203.3,876.1,o),
(123.5,773.7,o),
(139.8,748.7,cs),
(156,723.8,o),
(166.1,783.8,o),
(280.5,821.1,cs),
(449.5,876.1,o),
(693,823.8,o),
(923.5,840,cs),
(1087.1,851.5,o),
(1221.9,971.6,o),
(1206.1,997.2,cs),
(1190.3,1022.8,o),
(1154.6,975.5,o),
(975.3,929.3,cs),
(836,893.4,o),
(565.2,962.6,o),
(373.4,916.8,cs)
);
},
{
closed = 1;
nodes = (
(541.2,881.1,o),
(536.2,876.1,o),
(536.2,863.6,cs),
(536.2,116.7,o),
(420.6,97,o),
(290.4,97,cs),
(200.5,97,o),
(180,129.2,o),
(180,162.9,cs),
(180,221.6,o),
(209.7,226.5,o),
(247.3,226.5,cs),
(446.2,226.7,o),
(569.7,39.3,o),
(833.1,39.3,cs),
(1096.4,39.3,o),
(1209.1,207.5,o),
(1198.1,227.9,cs),
(1187.1,248.4,o),
(1070.7,135.8,o),
(898.9,135.8,cs),
(727.1,135.8,o),
(513.4,310.6,o),
(350.4,310.6,cs),
(155.4,310.6,o),
(50,211.7,o),
(50,92.5,cs),
(50,22.6,o),
(105.4,0.3,o),
(207,0.3,cs),
(308.5,0.3,o),
(672.6,33.9,o),
(672.6,862.4,cs),
(672.6,876.1,o),
(667.6,881.1,o),
(610.1,881.1,c)
);
},
{
closed = 1;
nodes = (
(837.3,886.9,o),
(819.7,885.2,o),
(819.7,863.5,cs),
(819.7,563.4,o),
(794.2,358.7,o),
(736.8,219.6,cs),
(657.2,26.8,o),
(450.3,-62.4,o),
(464.9,-88,cs),
(479.4,-113.5,o),
(665.3,-44.5,o),
(778,119.8,cs),
(890.7,284.1,o),
(936.6,392.3,o),
(936.6,870.4,cs),
(936.6,876.6,o),
(930.4,886.9,o),
(887.2,886.9,c)
);
},
{
closed = 1;
nodes = (
(401.9,384.6,o),
(435.4,418.2,o),
(435.4,459.6,cs),
(435.4,501.1,o),
(401.9,534.6,o),
(360.4,534.6,cs),
(319,534.6,o),
(285.4,501.1,o),
(285.4,459.6,cs),
(285.4,418.2,o),
(319,384.6,o),
(360.4,384.6,cs)
);
},
{
closed = 1;
nodes = (
(401.9,605.6,o),
(435.4,639.2,o),
(435.4,680.6,cs),
(435.4,722.1,o),
(401.9,755.6,o),
(360.4,755.6,cs),
(319,755.6,o),
(285.4,722.1,o),
(285.4,680.6,cs),
(285.4,639.2,o),
(319,605.6,o),
(360.4,605.6,cs)
);
}
);
width = 1257.4;
}
);
unicode = (84,116);
},
{
color = 2;
glyphname = U;
kernRight = LowerPartEmpty;
lastChange = "2023-06-30 08:49:04 +0000";
layers = (
{
layerId = m01;
shapes = (
{
closed = 1;
nodes = (
(179.9,937.8,o),
(43.6,800.2,o),
(50.2,781.9,cs),
(66.1,737.3,o),
(142.2,837.1,o),
(275,837.1,cs),
(476.9,837.1,o),
(570.7,837.1,o),
(659,837.1,cs),
(844.7,837.1,o),
(1032.5,986.2,o),
(1019.3,1006.2,cs),
(998.6,1037.5,o),
(886.1,937.9,o),
(763.5,937.9,cs),
(457.9,937.8,l)
);
},
{
closed = 1;
nodes = (
(381.6,892,l),
(381.6,535.7,ls),
(381.6,462.2,o),
(403.1,424.8,o),
(428.2,424.8,cs),
(462.2,424.8,o),
(530.8,476.8,o),
(530.7,535.4,cs),
(530.2,892,l)
);
},
{
closed = 1;
nodes = (
(609.6,555.7,ls),
(609.6,510.7,o),
(619.5,495.2,o),
(663.4,495.2,cs),
(713.1,495.2,o),
(722.5,483.5,o),
(722.5,462.1,cs),
(722.5,440.7,o),
(627.9,363.2,o),
(588.9,327,cs),
(566.3,306.1,o),
(581.7,268.4,o),
(558.9,246.5,c),
(299.1,-23.6,l),
(276.8,-44.6,o),
(243.6,-80.5,o),
(265.1,-101.4,cs),
(286.6,-122.3,o),
(326.2,-114.3,o),
(359.6,-83.2,c),
(557.6,126.7,l),
(589.2,167.4,o),
(593.6,189.1,o),
(616.6,213.1,cs),
(639.6,237.1,o),
(820.5,444.8,o),
(845,471.9,cs),
(869.5,499,o),
(884.2,518.4,o),
(884.2,541,cs),
(884.2,572.9,o),
(860.5,584.6,o),
(812.8,584.6,cs),
(765.1,584.6,o),
(747.8,607.7,o),
(747.8,673.5,cs),
(747.8,888.4,l),
(609.6,891,l)
);
}
);
width = 1070;
}
);
unicode = (85,117);
},
{
glyphname = V;
lastChange = "2023-06-30 08:49:08 +0000";
layers = (
{
layerId = m01;
shapes = (
{
closed = 1;
nodes = (
(278.8,630.5,o),
(163.3,631.9,o),
(116.8,588.6,cs),
(59.1,534.8,o),
(45.1,512.2,o),
(144.2,512.2,cs),
(243.3,512.2,o),
(348.1,532.4,o),
(499.9,532.4,cs),
(629.6,532.4,o),
(749.8,540.9,o),
(818.1,569.7,cs),
(880.8,596.1,o),
(881.6,659.9,o),
(808.5,659.9,cs),
(749.8,659.9,o),
(726.7,630.5,o),
(465.6,630.5,c)
);
},
{
closed = 1;
nodes = (
(348.8,587.6,o),
(315,577.9,o),
(315,556.5,cs),
(315,343.7,ls),
(315,315.5,o),
(307.5,247.6,o),
(254.3,247.6,cs),
(201.1,247.6,o),
(194.3,318.5,o),
(145.4,318.5,cs),
(96.5,318.5,o),
(50,250.2,o),
(50,200.5,cs),
(50,150.8,o),
(88.5,113,o),
(153.9,113,cs),
(260.4,113,o),
(447.7,237.3,o),
(447.7,402,cs),
(447.7,558.7,ls),
(447.7,573,o),
(428.5,587.6,o),
(389.2,587.6,cs)
);
},
{
closed = 1;
nodes = (
(568.5,591.5,o),
(536.2,585.1,o),
(536.2,564.8,cs),
(536.2,348,ls),
(536.2,216.6,o),
(596.1,113.1,o),
(883,113.1,cs),
(1117.7,113.1,o),
(1385.7,272.2,o),
(1385.7,399.9,cs),
(1385.7,507.9,o),
(1339.9,521.5,o),
(1292.2,521.5,cs),
(1261.6,521.5,o),
(1187.2,452.3,o),
(1187.2,422.7,cs),
(1187.2,402,o),
(1229.5,394.3,o),
(1229.5,350.5,cs),
(1229.5,306.7,o),
(1160.8,244.2,o),
(985.1,244.2,cs),
(809.4,244.2,o),
(695.1,293.8,o),
(695.1,407.9,cs),
(695.1,572.3,ls),
(695.1,584.2,o),
(670.9,591.5,o),
(613.5,591.5,cs)
);
},
{
closed = 1;
nodes = (
(996.3,349.9,o),
(1029.9,383.5,o),
(1029.9,424.9,cs),
(1029.9,466.3,o),
(996.3,499.9,o),
(954.9,499.9,cs),
(913.4,499.9,o),
(879.9,466.3,o),
(879.9,424.9,cs),
(879.9,383.5,o),
(913.4,349.9,o),
(954.9,349.9,cs)
);
},
{
closed = 1;
nodes = (
(657.9,734.9,o),
(691.4,768.5,o),
(691.4,809.9,cs),
(691.4,851.3,o),
(657.9,884.9,o),
(616.4,884.9,cs),
(575,884.9,o),
(541.4,851.3,o),
(541.4,809.9,cs),
(541.4,768.5,o),
(575,734.9,o),
(616.4,734.9,cs)
);
}
);
width = 1435.7;
}
);
unicode = (86,118);
},
{
glyphname = W;
lastChange = "2023-06-30 08:49:11 +0000";
layers = (
{
layerId = m01;
shapes = (
{
closed = 1;
nodes = (
(50,867.2,o),
(165.1,952.1,o),
(395.3,952.1,cs),
(586.8,952.1,o),
(663.3,864.4,o),
(663.3,694.9,cs),
(663.3,525.5,o),
(531.9,448.1,o),
(447.7,448.1,cs),
(374.8,448.1,o),
(332.1,501.3,o),
(332.1,594,cs),
(332.1,773.8,o),
(607.6,1000,o),
(810.9,1000,cs),
(954.6,1000,o),
(1003.5,910.7,o),
(1003.5,825.7,cs),
(1003.5,694.9,o),
(843.5,451.4,o),
(682.4,232.1,cs),
(521.4,12.9,o),
(428.2,-121.6,o),
(394.8,-95.9,cs),
(360.7,-69.7,o),
(444.2,61.9,o),
(608.8,276.5,cs),
(773.5,491.2,o),
(861.5,686.8,o),
(861.5,765.8,cs),
(861.5,844.6,o),
(818.7,867.2,o),
(757.4,867.2,cs),
(580,867.2,o),
(476.1,761,o),
(476.1,620.3,cs),
(476.1,511.3,o),
(545.5,571.2,o),
(545.5,644,cs),
(545.5,739.4,o),
(428.2,847.3,o),
(316.5,847.3,cs),
(211.9,847.3,o),
(174.2,795.5,o),
(174.2,670.4,cs),
(174.2,533.5,o),
(255.2,447.4,o),
(319.9,396.2,cs),
(428.2,310.7,o),
(438.3,256.7,o),
(410.8,218.3,cs),
(380.8,175.9,o),
(308.4,193.6,o),
(234.8,247.6,cs),
(143.2,314.9,o),
(50,411.9,o),
(50,629.6,c)
);
}
);
width = 1053.5;
}
);
unicode = (87,119);
},
{
glyphname = Y;
lastChange = "2023-06-30 08:49:31 +0000";
layers = (
{
layerId = m01;
shapes = (
{
closed = 1;
nodes = (
(364.1,933.6,o),
(341.1,1001.3,o),
(284.2,1001.3,cs),
(227.2,1001.3,o),
(210.5,959.6,o),
(210.5,920.5,cs),
(210.5,866.9,o),
(289.1,830.1,o),
(379,830.1,cs),
(432.1,830.1,o),
(459.9,855.6,o),
(549.2,854.9,cs),
(686.7,853.9,o),
(885.4,900.2,o),
(871.9,969.3,cs),
(863.6,1012.2,o),
(740.2,933.6,o),
(512.4,933.6,cs)
);
},
{
closed = 1;
nodes = (
(494.3,892.6,o),
(474.5,887.2,o),
(474.5,872.2,cs),
(474.5,453.3,l),
(474.5,436.4,o),
(418,393.5,o),
(384.8,370.3,cs),
(347,343.9,o),
(282.7,289.1,o),
(297.4,269.3,cs),
(312.2,249.3,o),
(392.1,289.1,o),
(463.9,342.4,cs),
(528.8,390.5,o),
(591.3,437,o),
(591.3,464.8,cs),
(591.3,867.5,ls),
(591.3,883.9,o),
(577.4,892.6,o),
(535,892.6,cs)
);
},
{
closed = 1;
nodes = (
(688.1,753.7,o),
(672.7,719.5,o),
(624.4,719.5,cs),
(576.1,719.5,o),
(552.1,701.2,o),
(552.1,688.4,cs),
(552.1,675.6,o),
(580.4,658,o),
(625.6,658,cs),
(670.9,658,o),
(681.9,608.9,o),
(681.9,591,cs),
(681.9,573,o),
(553.2,465.2,o),
(569.5,442.3,cs),
(585.9,419.3,o),
(632.3,457.5,o),
(657,457.5,cs),
(692,457.5,o),
(721,382.2,o),
(721,313.1,cs),
(721,202.9,o),
(603.6,107.7,o),
(463.3,107.7,cs),
(323.1,107.7,o),
(187.8,163.9,o),
(187.8,317.3,cs),
(187.8,400.2,o),
(239.3,432.2,o),
(219,458.5,cs),
(198.7,484.8,o),
(50,381.6,o),
(50,247.9,cs),
(50,90.7,o),
(204.8,0,o),
(401.7,0,cs),
(632.3,0,o),
(848.9,176.6,o),
(848.9,364,cs),
(848.9,551.4,o),
(764.3,518.9,o),
(764.3,559.9,cs),
(764.3,600.9,o),
(802.7,616.1,o),
(802.7,660.5,cs),
(802.7,704.8,o),
(745,753.7,o),
(715.9,753.7,cs)
);
},
{
closed = 1;
nodes = (
(383.9,628.5,o),
(417.5,662.1,o),
(417.5,703.5,cs),
(417.5,745,o),
(383.9,778.5,o),
(342.5,778.5,cs),
(301.1,778.5,o),
(267.5,745,o),
(267.5,703.5,cs),
(267.5,662.1,o),
(301.1,628.5,o),
(342.5,628.5,cs)
);
},
{
closed = 1;
nodes = (
(383.9,427,o),
(417.5,460.6,o),
(417.5,502,cs),
(417.5,543.5,o),
(383.9,577,o),
(342.5,577,cs),
(301.1,577,o),
(267.5,543.5,o),
(267.5,502,cs),
(267.5,460.6,o),
(301.1,427,o),
(342.5,427,cs)
);
}
);
width = 922.6;
}
);
unicode = (89,121);
},
{
glyphname = Z;
lastChange = "2023-06-30 08:49:37 +0000";
layers = (
{
layerId = m01;
shapes = (
{
closed = 1;
nodes = (
(264.4,1031.6,o),
(114.3,972.6,o),
(114.3,765.1,cs),
(114.3,629.1,o),
(312.5,504.6,o),
(499.1,504.6,cs),
(749.7,504.6,o),
(929.9,633,o),
(929.9,744,cs),
(929.9,812.4,o),
(896.5,831.2,o),
(844.3,831.2,cs),
(760.2,831.2,o),
(653.1,722.5,o),
(424.6,457.8,cs),
(205.3,195,o),
(62.5,19.4,o),
(97,-11.5,cs),
(131.4,-42.5,o),
(271.6,115.7,o),
(494.4,385.7,cs),
(617.4,534.8,o),
(749.8,702.1,o),
(789.6,702.1,cs),
(799.4,702.1,o),
(807.1,690.6,o),
(807.1,675.7,cs),
(807.1,649.4,o),
(739,639.4,o),
(530.1,639.4,cs),
(345.1,639.4,o),
(257.8,731,o),
(257.8,810.5,cs),
(257.8,911.2,o),
(377.4,906.6,o),
(315.4,975.2,cs)
);
},
{
closed = 1;
nodes = (
(145.1,379.2,o),
(127.1,332,o),
(127.1,279.9,cs),
(127.1,171.9,o),
(346.9,0.5,o),
(509.7,0.5,cs),
(672.5,0.5,o),
(756.2,100.5,o),
(756.2,132.1,cs),
(756.2,154.6,o),
(676.7,116.1,o),
(553.4,116.1,cs),
(292.4,116.1,o),
(278.3,379.2,o),
(193.7,379.2,cs)
);
},
{
closed = 1;
nodes = (
(893.3,29.3,o),
(923.8,59.8,o),
(923.8,97.5,cs),
(923.8,135.2,o),
(893.3,165.6,o),
(855.6,165.6,cs),
(817.9,165.6,o),
(787.4,135.2,o),
(787.4,97.5,cs),
(787.4,59.8,o),
(817.9,29.3,o),
(855.6,29.3,cs)
);
}
);
width = 1021.8;
}
);
unicode = (90,122);
},
{
glyphname = "pretty-A";
lastChange = "2022-08-29 01:43:14 +0000";
layers = (
{
layerId = m01;
shapes = (
{
closed = 1;
nodes = (
(145.4,986.7,o),
(9.7,865.7,o),
(26.4,842.6,cs),
(43.2,819.5,o),
(113.3,892.7,o),
(455,910.6,cs),
(770.6,927.1,o),
(805.8,844.1,o),
(1097.8,861,cs),
(1301.1,872.8,o),
(1386.1,954.6,o),
(1376.2,977.1,cs),
(1366.5,999.4,o),
(1312.3,967.2,o),
(1035.5,952.7,cs),
(878.3,944.4,o),
(636.4,1012.4,o),
(385,999.2,c)
);
},
{
closed = 1;
nodes = (
(622.3,945,o),
(534.7,836.5,o),
(446.4,701.6,cs),
(372.8,589.1,o),
(340,448.3,o),
(346,331.5,cs),
(353.3,191.9,o),
(473.4,-14.3,o),
(748.1,0.1,cs),
(1006.1,13.5,o),
(1162.9,244.6,o),
(1158.7,325.8,cs),
(1155.8,382.3,o),
(1109.1,422.1,o),
(1066.4,409.2,cs),
(1032.5,399,o),
(1030.4,355.8,o),
(1043.7,310.8,cs),
(1052.3,281.7,o),
(1025.3,243.9,o),
(985.9,204.2,cs),
(944.6,162.8,o),
(881.8,125.9,o),
(798.6,121.5,cs),
(582.8,110.2,o),
(501.9,265,o),
(496.4,370.3,cs),
(491.4,466.1,o),
(506.9,536.4,o),
(554.8,645.8,cs),
(682.7,939,o),
(881.7,958.5,o),
(734.1,950.7,cs)
);
},
{
closed = 1;
nodes = (
(827,294.2,o),
(860.4,327.7,o),
(860.4,369,cs),
(860.4,410.3,o),
(827,443.8,o),
(785.6,443.8,cs),
(744.3,443.8,o),
(710.8,410.3,o),
(710.8,369,cs),
(710.8,327.7,o),
(744.3,294.2,o),
(785.6,294.2,cs)
);
},
{
closed = 1;
nodes = (
(864.2,552.5,o),
(897.7,586,o),
(897.7,627.3,cs),
(897.7,668.6,o),
(864.2,702.1,o),
(822.9,702.1,cs),
(781.6,702.1,o),
(748.1,668.6,o),
(748.1,627.3,cs),
(748.1,586,o),
(781.6,552.5,o),
(822.9,552.5,cs)
);
}
);
width = 1402;
}
);
},
{
glyphname = "pretty-S";
lastChange = "2022-11-16 17:03:28 +0000";
layers = (
{
layerId = m01;
shapes = (
{
closed = 1;
nodes = (
(142.8,997.4,o),
(33.7,893.1,o),
(52,871.2,cs),
(70.3,849.4,o),
(121.9,926.5,o),
(293.4,926.5,cs),
(464.9,926.5,o),
(513.1,867.3,o),
(752.2,867.3,cs),
(1027.7,867.3,o),
(1118.2,976.7,o),
(1108.7,994.9,cs),
(1099.2,1013.1,o),
(970.3,949,o),
(702.7,949,cs),
(525.4,949,o),
(467.7,997.4,o),
(305.5,997.4,cs)
);
},
{
closed = 1;
nodes = (
(595.3,913.1,o),
(575,915.6,o),
(577.3,892.7,cs),
(595.3,716.5,o),
(598.1,503.3,o),
(532.8,484.3,c),
(709.1,426.3,l),
(659.3,484.3,o),
(686.3,692.6,o),
(688.5,885.2,cs),
(688.8,910.7,o),
(663.7,913.1,o),
(629.4,913.1,cs)
);
},
{
closed = 1;
nodes = (
(559.1,295.1,o),
(525.4,328.7,o),
(525.4,370.2,cs),
(525.4,411.7,o),
(559.1,445.3,o),
(600.5,445.3,cs),
(642,445.3,o),
(675.6,411.7,o),
(675.6,370.2,cs),
(675.6,328.7,o),
(642,295.1,o),
(600.5,295.1,cs)
);
},
{
closed = 1;
nodes = (
(688.8,211.3,o),
(760,282.5,o),
(760,370.3,cs),
(760,458.2,o),
(688.8,529.4,o),
(600.9,529.4,cs),
(513.1,529.4,o),
(441.8,458.2,o),
(441.8,370.3,cs),
(441.8,282.5,o),
(513.1,211.3,o),
(600.9,211.3,cs)
);
},
{
closed = 1;
nodes = (
(324.6,734.5,o),
(46.5,506.6,o),
(88.8,250.8,cs),
(117.4,77.2,o),
(330.9,-0.4,o),
(484,-0.4,cs),
(637.1,-0.4,o),
(697.1,37.1,o),
(756.2,37.1,cs),
(815.3,37.1,o),
(851.1,-58.7,o),
(922.4,-58.7,cs),
(993.7,-58.7,o),
(1030.2,-34.9,o),
(1025.3,-5.3,cs),
(1020.5,24.2,o),
(956.8,25.2,o),
(947.6,81.2,cs),
(938.3,137.3,o),
(919.5,183.9,o),
(877.1,183.9,cs),
(834.7,183.9,o),
(808.8,160,o),
(784.7,138.9,cs),
(760.7,117.8,o),
(725.7,86.3,o),
(589.4,86.3,cs),
(453.1,86.3,o),
(238.8,164.7,o),
(215.8,303.7,cs),
(192.9,442.8,o),
(349.4,659.5,o),
(634.3,659.5,cs),
(847.3,659.5,o),
(805.3,565.1,o),
(853,530.2,c),
(899.4,502.8,o),
(942.8,501.9,o),
(961.7,536.8,cs),
(980.6,571.8,o),
(905.3,734.5,o),
(700,734.5,cs)
);
}
